<?xml version="1.0" encoding="UTF-8" standalone="no"?>
<svg
   xmlns:dc="http://purl.org/dc/elements/1.1/"
   xmlns:cc="http://creativecommons.org/ns#"
   xmlns:rdf="http://www.w3.org/1999/02/22-rdf-syntax-ns#"
   xmlns:svg="http://www.w3.org/2000/svg"
   xmlns="http://www.w3.org/2000/svg"
   xmlns:sodipodi="http://sodipodi.sourceforge.net/DTD/sodipodi-0.dtd"
   xmlns:inkscape="http://www.inkscape.org/namespaces/inkscape"
   version="1.1"
   x="0px"
   y="0px"
   viewBox="0 0 200 128.21555"
   enable-background="new 0 0 100 100"
   xml:space="preserve"
   id="svg3394"
   inkscape:version="0.91 r13725"
   sodipodi:docname="fast.svg"
   width="200"
   height="128.21555"><metadata
     id="metadata3412"><rdf:RDF><cc:Work
         rdf:about=""><dc:format>image/svg+xml</dc:format><dc:type
           rdf:resource="http://purl.org/dc/dcmitype/StillImage" /><dc:title></dc:title></cc:Work></rdf:RDF></metadata><defs
     id="defs3410" /><sodipodi:namedview
     pagecolor="#ffffff"
     bordercolor="#666666"
     borderopacity="1"
     objecttolerance="10"
     gridtolerance="10"
     guidetolerance="10"
     inkscape:pageopacity="0"
     inkscape:pageshadow="2"
     inkscape:window-width="1871"
     inkscape:window-height="1056"
     id="namedview3408"
     showgrid="false"
     fit-margin-top="0"
     fit-margin-left="0"
     fit-margin-right="0"
     fit-margin-bottom="0"
     inkscape:zoom="7.352"
     inkscape:cx="48.17"
     inkscape:cy="11.868636"
     inkscape:window-x="49"
     inkscape:window-y="24"
     inkscape:window-maximized="1"
     inkscape:current-layer="svg3394" /><g
     id="g3414"
     transform="matrix(2.0583649,0,0,2.0583649,-3.7668078,-35.817608)"><path
       id="path3396"
       d="m 92.636,59.5 c -20.558,0 -41.119,0 -61.677,0 -2.37,0 -2.37,3.671 0,3.671 20.558,0 41.119,0 61.677,0 2.37,-10e-4 2.37,-3.671 0,-3.671 l 0,0 z"
       inkscape:connector-curvature="0" /><path
       id="path3398"
       d="m 97.289,49.044 c -19.01,0 -38.021,0 -57.03,0 -2.276,0 -2.276,3.531 0,3.531 19.008,0 38.02,0 57.03,0 2.274,0 2.274,-3.531 0,-3.531 l 0,0 z"
       inkscape:connector-curvature="0" /><path
       id="path3400"
       d="m 86.028,38.695 c -20.559,0 -41.119,0 -61.678,0 -2.369,0 -2.369,3.67 0,3.67 20.559,0 41.119,0 61.678,0 2.368,0.002 2.368,-3.67 0,-3.67 l 0,0 z"
       inkscape:connector-curvature="0" /><path
       id="path3402"
       d="M 28.754,79.691 C 19.847,79.691 12.6,72.444 12.6,63.537 12.6,63.029 12.652,62.579 12.718,62.17 6.297,59.959 1.83,53.851 1.83,46.895 1.83,37.986 9.077,30.74 17.985,30.74 c 0.514,0 1.028,0.023 1.539,0.072 1.185,-7.696 7.718,-13.411 15.838,-13.411 7.641,0 14.298,5.426 15.826,12.901 0.228,1.125 -0.496,2.226 -1.622,2.456 -1.123,0.227 -2.229,-0.496 -2.458,-1.624 -1.133,-5.547 -6.074,-9.571 -11.749,-9.571 -6.655,0 -11.868,5.173 -11.868,11.777 0,0.69 -0.341,1.337 -0.915,1.725 -0.571,0.386 -1.298,0.465 -1.939,0.209 L 20.227,35.11 C 19.492,34.971 18.738,34.9 17.983,34.9 11.37,34.9 5.991,40.279 5.991,46.894 c 0,5.718 4.064,10.666 9.664,11.767 0.617,0.12 1.145,0.516 1.439,1.067 0.293,0.557 0.32,1.215 0.074,1.793 l -0.177,0.414 c -0.023,0.124 -0.048,0.246 -0.071,0.367 -0.09,0.468 -0.162,0.838 -0.162,1.234 0,6.613 5.379,11.992 11.992,11.992 4.884,0 9.24,-2.916 11.099,-7.434 0.435,-1.063 1.652,-1.571 2.715,-1.134 1.063,0.437 1.571,1.653 1.133,2.716 -2.497,6.086 -8.364,10.015 -14.943,10.015 z"
       inkscape:connector-curvature="0" /></g></svg>