<?xml version="1.0" encoding="UTF-8" standalone="no"?>
<svg
   xmlns:dc="http://purl.org/dc/elements/1.1/"
   xmlns:cc="http://creativecommons.org/ns#"
   xmlns:rdf="http://www.w3.org/1999/02/22-rdf-syntax-ns#"
   xmlns:svg="http://www.w3.org/2000/svg"
   xmlns="http://www.w3.org/2000/svg"
   xmlns:sodipodi="http://sodipodi.sourceforge.net/DTD/sodipodi-0.dtd"
   xmlns:inkscape="http://www.inkscape.org/namespaces/inkscape"
   version="1.1"
   x="0px"
   y="0px"
   viewBox="0 0 200 128.21555"
   enable-background="new 0 0 100 100"
   xml:space="preserve"
   id="svg3394"
   inkscape:version="0.91 r13725"
   sodipodi:docname="secure.svg"
   width="200"
   height="128.21555"><metadata
     id="metadata3412"><rdf:RDF><cc:Work
         rdf:about=""><dc:format>image/svg+xml</dc:format><dc:type
           rdf:resource="http://purl.org/dc/dcmitype/StillImage" /><dc:title></dc:title></cc:Work></rdf:RDF></metadata><defs
     id="defs3410" /><sodipodi:namedview
     pagecolor="#ffffff"
     bordercolor="#666666"
     borderopacity="1"
     objecttolerance="10"
     gridtolerance="10"
     guidetolerance="10"
     inkscape:pageopacity="0"
     inkscape:pageshadow="2"
     inkscape:window-width="1871"
     inkscape:window-height="1056"
     id="namedview3408"
     showgrid="false"
     fit-margin-top="0"
     fit-margin-left="0"
     fit-margin-right="0"
     fit-margin-bottom="0"
     inkscape:zoom="1.838"
     inkscape:cx="81.505041"
     inkscape:cy="-66.941849"
     inkscape:window-x="49"
     inkscape:window-y="24"
     inkscape:window-maximized="1"
     inkscape:current-layer="svg3394" /><g
     id="g3338"
     transform="matrix(8.0135,0,0,8.0135,35.892,-2.2717285e-4)"><path
       inkscape:connector-curvature="0"
       d="M 12,5.537 12,4 C 12,1.791 10.209,0 8,0 5.791,0 4,1.791 4,4 L 4,5.537 C 2.775,6.635 2,8.225 2,10 c 0,3.314 2.686,6 6,6 3.314,0 6,-2.686 6,-6 C 14,8.225 13.225,6.635 12,5.537 Z M 6,4 C 6,2.897 6.897,2 8,2 c 1.103,0 2,0.897 2,2 l 0,0.349 C 9.374,4.127 8.702,4 8,4 7.298,4 6.626,4.127 6,4.349 L 6,4 Z M 8,14 C 5.791,14 4,12.209 4,10 4,7.791 5.791,6 8,6 c 2.209,0 4,1.791 4,4 0,2.209 -1.791,4 -4,4 z"
       id="path3340" /><path
       inkscape:connector-curvature="0"
       d="m 8,12 0,0 C 7.448,12 7,11.552 7,11 L 7,9 C 7,8.448 7.448,8 8,8 l 0,0 c 0.552,0 1,0.448 1,1 l 0,2 c 0,0.552 -0.448,1 -1,1 z"
       id="path3342" /><rect
       y="0"
       x="0"
       style="fill:none"
       width="16"
       height="16"
       id="rect3344" /></g></svg>